<svg width="26" height="18" viewBox="0 0 26 18" fill="none" xmlns="http://www.w3.org/2000/svg">
<path d="M24.8359 0.152344H9.01562C8.49707 0.152344 8.07812 0.571289 8.07812 1.08984V8.00391H1.16406C0.645508 8.00391 0.226562 8.42285 0.226562 8.94141V16.9102C0.226562 17.4287 0.645508 17.8477 1.16406 17.8477H16.9844C17.5029 17.8477 17.9219 17.4287 17.9219 16.9102V9.99609H24.8359C25.3545 9.99609 25.7734 9.57715 25.7734 9.05859V1.08984C25.7734 0.571289 25.3545 0.152344 24.8359 0.152344ZM10.0703 2.14453H15.9297V8.00391H10.0703V2.14453ZM8.07812 15.8555H2.21875V9.99609H8.07812V15.8555ZM15.9297 15.8555H10.0703V9.99609H15.9297V15.8555ZM23.7812 8.00391H17.9219V2.14453H23.7812V8.00391Z" fill="#D8F366"/>
</svg>
